<svg xmlns="http://www.w3.org/2000/svg" viewBox="0 0 300 300" stroke="#007bff" fill="transparent"><path d="M118.2 66.5q-.2-4.2 5.3-4.2 7.5-.8 7 4.7 0 3.5-5.5 4.5-7 2-7 6.5h14m13.5-15.5q-7.5-.1-7.5 7.5 0 8.5 7 8 8 0 7.5-8 .5-8-7.5-7.5m13 2.5l3.8-2.5h1.2V79m5-16.5h14V64l-8 13.6h.5L182 63" stroke-width="4.5" /><path d="M150 15q50 45 120 50 0 175-120 220Q30 240 30 65q70-5 120-50" stroke-width="20" stroke-linecap="round" /><g stroke-linecap="square"><path d="M70 130l10-33" stroke-width="10" /><path d="M91.7 98.4l8.8 28.6" stroke-width="13.5" /><path d="M80 120h10M75 94h17.2M64 133.5h13m14.5 0H110" stroke-width="8" /><path d="M126 130V97" stroke-width="10" /><path d="M172 130V97" stroke-width="13.5" /><path d="M137.4 98l8.25 31.6" stroke-width="13" /><path d="M160.75 96.1l-9.3 35.25" stroke-width="10" /><path d="M121 94h17m23.2 0h17.3M121 133.5h10m14 0h6m14 0h13" stroke-width="8" /><path d="M196 130l10-33" stroke-width="10" /><path d="M217.5 98.5l9 28.5" stroke-width="13.5" /><path d="M206 120h10m-15-26h17m-28 39.5h13m14.5 0H235" stroke-width="8" /></g><g stroke-linecap="round" stroke-width="3"><path d="M150 161.5Q125 145 107.5 148v68q32.5 0 42.5 5v-59.5q20-15.5 41.5-13.5v68q-31.5 0-41.5 6h-48v-67h5.5-5.5v8h-4.5v64H201v-64h-4v-8.5h-5 5V222h-47" /><path d="M114 159.5q11-.5 30 11m41-11q-15 1.5-29 11m-42-1q11 .5 29.5 10.5m41.5-10.5q-15 2-29 10.5m-42 1q11-1 29.5 8m41.5-8q-15 0-29 8m-42 3q11 0 22 3m49-3.5q-15 .5-29 5.7m-42 3.8q21 1 29.5 4.7m42-4.2Q169 201 156 206" /></g></svg>